<svg xmlns="http://www.w3.org/2000/svg" width="194" height="40" viewBox="0 0 194 40">
  <g fill="#FFF" fill-rule="evenodd">
    <path d="M2.57101151,2.57167248 C5.99381916,-0.857224159 11.5620799,-0.857224159 14.9842083,2.57167248 L14.9842083,2.57167248 L19.0927322,6.68954825 C19.4347413,7.02893174 19.8806776,7.1994745 20.3266139,7.1994745 C20.7657577,7.1994745 21.2032032,7.03267619 21.5424952,6.70452605 L21.5424952,6.70452605 L25.9570273,2.27994564 C26.6424039,1.59334934 27.7526597,1.59334934 28.4376967,2.27994564 C29.1210356,2.96552073 29.1220545,4.07489967 28.4410931,4.76183638 L28.4410931,4.76183638 L19.9149804,13.3073562 C19.2438683,13.9803363 19.2438683,15.0703122 19.9149804,15.7432923 C20.2505365,16.0796122 20.6903594,16.2477721 21.1301824,16.2477721 C21.5700054,16.2477721 22.0094887,16.0796122 22.3453844,15.7432923 L22.3453844,15.7432923 L22.4146693,15.6738497 L22.420443,15.6956356 L24.8399788,13.2705925 C25.5250158,12.5839962 26.6356113,12.5839962 27.3206483,13.2705925 C28.0056853,13.9571888 28.0056853,15.0703122 27.3206483,15.7569085 L27.3206483,15.7569085 L23.5082831,19.5779513 L19.9951335,23.1491372 C19.3240214,23.8221173 19.3240214,24.9124335 19.9951335,25.5850733 C20.3306895,25.9213931 20.7701729,26.089553 21.2099958,26.089553 C21.6498188,26.089553 22.0896418,25.9213931 22.4251978,25.5850733 L22.4251978,25.5850733 L31.4648335,16.5252019 C31.4661921,16.5238403 31.9691865,16.0190201 31.9702054,16.0179989 C32.6576199,15.3630602 33.7424033,15.3698683 34.4169117,16.0459121 C35.1016091,16.7328488 35.1016091,17.8456318 34.4169117,18.5322281 L34.4169117,18.5322281 L21.4932486,31.4849677 C21.1508999,31.828436 20.7019069,32 20.2529139,32 C19.8242988,32 19.3984007,31.8389886 19.062505,31.5261566 L19.062505,31.5261566 L19.0574105,31.53739 L2.57101151,15.0131242 C0.913269477,13.3516088 0,11.1423822 0,8.79256854 C0,6.44275483 0.913269477,4.23318786 2.57101151,2.57167248 Z M37.1391235,10.6115574 C38.2084017,10.6115574 39.07488,11.4816851 39.07488,12.5550468 C39.07488,13.6280681 38.2084017,14.4981957 37.1391235,14.4981957 C36.0698452,14.4981957 35.2030278,13.6280681 35.2030278,12.5550468 C35.2030278,11.4816851 36.0698452,10.6115574 37.1391235,10.6115574 Z M35.5452104,2.48505532 C36.2292365,1.79841702 37.3378539,1.79841702 38.0222191,2.48505532 C38.7062452,3.17203404 38.7062452,4.28488511 38.0222191,4.9715234 L38.0222191,4.9715234 L31.5689061,11.4494809 C31.2267235,11.7929702 30.7787322,11.9645447 30.3304017,11.9645447 C29.8824104,11.9645447 29.43408,11.7929702 29.0918974,11.4494809 C28.4078713,10.7628426 28.4078713,9.64965106 29.0918974,8.96301277 L29.0918974,8.96301277 Z" transform="translate(0 4)"/>
    <path fill-rule="nonzero" d="M74.9965005,17 L74.9965005,13.4119994 L78.8250011,13.4119994 L78.8250011,17 L80.9960015,17 L80.9960015,7.89999851 L78.8250011,7.89999851 L78.8250011,11.4034991 L74.9965005,11.4034991 L74.9965005,7.89999851 L72.8255001,7.89999851 L72.8255001,17 L74.9965005,17 Z M86.5590006,17.169 C87.7355008,17.169 88.704001,16.7855 89.3670011,16.1224999 L88.0540009,14.9004997 C87.6510008,15.2644997 87.1375007,15.4594997 86.6630006,15.4594997 C85.9610005,15.4594997 85.4670004,15.1344997 85.2980004,14.4389996 L89.6205011,14.4389996 C89.6465011,14.3024996 89.6595011,14.0164995 89.6595011,13.8084995 C89.6530011,11.8129991 88.3595009,10.4479989 86.4680006,10.4479989 C84.5310003,10.4479989 83.1985001,11.8389992 83.1985001,13.8474995 C83.1985001,15.8364998 84.5570003,17.169 86.5590006,17.169 Z M87.6250008,13.1519994 L85.3045004,13.1519994 C85.4605004,12.5214993 85.8440005,12.1769992 86.4745006,12.1769992 C87.0660007,12.1769992 87.4625008,12.5149993 87.6250008,13.1519994 Z M94.3775005,17.169 C95.2420007,17.169 95.8270008,16.8115 96.2105008,16.3109999 L96.2105008,17 L98.1800012,17 L98.1800012,10.623499 L96.2105008,10.623499 L96.2105008,11.3124991 C95.8270008,10.811999 95.2420007,10.4479989 94.3840005,10.4479989 C92.6745003,10.4479989 91.4135001,11.9299992 91.4135001,13.8019995 C91.4135001,15.6869998 92.6745003,17.169 94.3775005,17.169 Z M94.8650006,15.2709997 C94.0525005,15.2709997 93.5065004,14.6404996 93.5065004,13.8084995 C93.5065004,12.9764993 94.0525005,12.3459992 94.8650006,12.3459992 C95.6645008,12.3459992 96.2300009,12.9634993 96.2300009,13.8084995 C96.2300009,14.6534996 95.6645008,15.2709997 94.8650006,15.2709997 Z M102.638,17 L102.638,7.63999847 L100.6035,7.63999847 L100.6035,17 L102.638,17 Z M108.233501,17.169 C109.260501,17.169 109.897501,16.8765 110.495501,16.4604999 L109.793501,14.8744997 C109.475001,15.0629997 109.065501,15.2709997 108.688501,15.2709997 C108.175001,15.2709997 107.785001,15.0239997 107.785001,14.2894996 L107.785001,12.4239992 L109.962501,12.4239992 L109.962501,10.623499 L107.785001,10.623499 L107.785001,8.76449865 L105.7505,8.76449865 L105.7505,10.623499 L104.561,10.623499 L104.561,12.4239992 L105.7505,12.4239992 L105.7505,14.5494996 C105.7505,16.1484999 106.524,17.169 108.233501,17.169 Z M114.3295,17 L114.3295,13.5679994 C114.3295,12.7424993 114.797501,12.3589992 115.363001,12.3589992 C115.993501,12.3589992 116.370501,12.7814993 116.370501,13.5354994 L116.370501,17 L118.405001,17 L118.405001,12.8139993 C118.405001,11.3384991 117.417001,10.4479989 116.143001,10.4479989 C115.350001,10.4479989 114.732501,10.714499 114.3295,11.2929991 L114.3295,7.63349846 L112.295,7.63349846 L112.295,17 L114.3295,17 Z M123.701501,19.7300004 C125.788001,19.7300004 127.159501,18.4820002 127.159501,16.3889999 L127.159501,10.623499 L125.190001,10.623499 L125.190001,11.2864991 C124.813001,10.792499 124.247501,10.4479989 123.409001,10.4479989 C121.6995,10.4479989 120.4515,11.8649992 120.4515,13.6719995 C120.4515,15.4789998 121.6995,16.8895 123.409001,16.8895 C124.228001,16.8895 124.787001,16.5644999 125.164001,16.0834998 L125.164001,16.4799999 C125.164001,17.4940001 124.384001,17.9490002 123.558501,17.9490002 C122.8045,17.9490002 122.135,17.7410001 121.511,17.299 L120.7895,18.9175003 C121.55,19.4570004 122.6355,19.7300004 123.701501,19.7300004 Z M123.890001,15.0369997 C123.097,15.0369997 122.551,14.4454996 122.551,13.6719995 C122.551,12.8919993 123.097,12.3069992 123.890001,12.3069992 C124.657001,12.3069992 125.190001,12.8854993 125.190001,13.6719995 C125.190001,14.4584996 124.657001,15.0369997 123.890001,15.0369997 Z M131.6175,17 L131.6175,13.5549994 C131.6175,12.7619993 132.059501,12.4044992 132.781001,12.4044992 C133.145001,12.4044992 133.528501,12.4824993 133.801501,12.5734993 L133.990001,10.5454989 C133.834001,10.4999989 133.574001,10.4479989 133.275001,10.4479989 C132.495001,10.4479989 131.9035,10.740499 131.533,11.3579991 L131.533,10.623499 L129.583,10.623499 L129.583,17 L131.6175,17 Z M138.376501,17.169 C139.241001,17.169 139.826001,16.8115 140.209501,16.3109999 L140.209501,17 L142.179001,17 L142.179001,10.623499 L140.209501,10.623499 L140.209501,11.3124991 C139.826001,10.811999 139.241001,10.4479989 138.383001,10.4479989 C136.6735,10.4479989 135.4125,11.9299992 135.4125,13.8019995 C135.4125,15.6869998 136.6735,17.169 138.376501,17.169 Z M138.864001,15.2709997 C138.0515,15.2709997 137.5055,14.6404996 137.5055,13.8084995 C137.5055,12.9764993 138.0515,12.3459992 138.864001,12.3459992 C139.663501,12.3459992 140.229001,12.9634993 140.229001,13.8084995 C140.229001,14.6534996 139.663501,15.2709997 138.864001,15.2709997 Z M147.228501,17.169 C148.093001,17.169 148.678001,16.8115 149.061501,16.3109999 L149.061501,17 L151.024501,17 L151.024501,7.63999847 L148.996501,7.63999847 L148.996501,11.2344991 C148.613001,10.772999 148.047501,10.4479989 147.235001,10.4479989 C145.5255,10.4479989 144.2645,11.9299992 144.2645,13.8019995 C144.2645,15.6869998 145.5255,17.169 147.228501,17.169 Z M147.716001,15.2709997 C146.9035,15.2709997 146.3575,14.6404996 146.3575,13.8084995 C146.3575,12.9764993 146.9035,12.3459992 147.716001,12.3459992 C148.515501,12.3459992 149.081001,12.9634993 149.081001,13.8084995 C149.081001,14.6534996 148.515501,15.2709997 147.716001,15.2709997 Z M156.470501,17.169 C157.647001,17.169 158.615501,16.7855 159.278501,16.1224999 L157.965501,14.9004997 C157.562501,15.2644997 157.049001,15.4594997 156.574501,15.4594997 C155.872501,15.4594997 155.3785,15.1344997 155.2095,14.4389996 L159.532001,14.4389996 C159.558001,14.3024996 159.571001,14.0164995 159.571001,13.8084995 C159.564501,11.8129991 158.271001,10.4479989 156.379501,10.4479989 C154.4425,10.4479989 153.11,11.8389992 153.11,13.8474995 C153.11,15.8364998 154.4685,17.169 156.470501,17.169 Z M157.536501,13.1519994 L155.216,13.1519994 C155.372,12.5214993 155.7555,12.1769992 156.386001,12.1769992 C156.977501,12.1769992 157.374001,12.5149993 157.536501,13.1519994 Z M164.159001,17.1625 C166.018001,17.1625 167.110001,16.3239999 167.110001,14.9264997 C167.110001,13.8539995 166.388501,13.1974994 165.023501,12.9894993 L164.555501,12.9179993 C163.931501,12.8204993 163.5285,12.7554993 163.5285,12.4824993 C163.5285,12.2484992 163.7365,12.0924992 164.269501,12.0924992 C164.919501,12.0989992 165.738501,12.3199992 166.369001,12.5864993 L166.934501,11.000499 C165.888001,10.597499 165.225001,10.4544989 164.191501,10.4544989 C162.456,10.4544989 161.4355,11.2279991 161.4355,12.5864993 C161.4355,13.7304995 162.1505,14.3674996 163.6845,14.5949996 L164.055001,14.6469996 C164.776501,14.7574996 165.062501,14.8549996 165.062501,15.1019997 C165.062501,15.3749997 164.802501,15.5179998 164.172001,15.5179998 C163.288,15.5179998 162.56,15.2969997 161.923,14.9199997 L161.2145,16.4929999 C161.9425,16.9675 163.067,17.1625 164.159001,17.1625 Z M77.2390009,33.169 C78.9810011,33.169 80.3655014,32.3954999 81.1975015,31.1539997 L79.4165012,29.8929995 C78.8965011,30.6664996 78.142501,31.0889997 77.2195009,31.0889997 C75.8740006,31.0889997 74.7105004,30.1399995 74.7105004,28.4499993 C74.7105004,26.889999 75.7765006,25.8109988 77.2130009,25.8109988 C78.155501,25.8109988 78.9030011,26.2399989 79.3775012,27.013499 L81.2820015,25.9214988 C80.5085014,24.5434986 78.9745011,23.7309985 77.2390009,23.7309985 C74.4310004,23.7309985 72.4485001,25.6939988 72.4485001,28.4499993 C72.4485001,31.2059997 74.4310004,33.169 77.2390009,33.169 Z M86.3055006,33.169 C88.301001,33.169 89.7700012,31.7389998 89.7700012,29.8084995 C89.7700012,27.8779992 88.301001,26.4479989 86.3055006,26.4479989 C84.3165003,26.4479989 82.8475001,27.8779992 82.8475001,29.8084995 C82.8475001,31.7389998 84.3165003,33.169 86.3055006,33.169 Z M86.3055006,31.2709997 C85.5125005,31.2709997 84.9275004,30.6664996 84.9275004,29.8084995 C84.9275004,28.9504993 85.5125005,28.3459992 86.3055006,28.3459992 C87.1050008,28.3459992 87.6900009,28.9504993 87.6900009,29.8084995 C87.6900009,30.6664996 87.1050008,31.2709997 86.3055006,31.2709997 Z M93.8965005,33 L93.8965005,29.5679994 C93.8965005,28.7424993 94.3645005,28.3589992 94.9300006,28.3589992 C95.5605007,28.3589992 95.9375008,28.7814993 95.9375008,29.5354994 L95.9375008,33 L97.9720011,33 L97.9720011,29.5679994 C97.9720011,28.7424993 98.4465012,28.3589992 99.0055013,28.3589992 C99.6425014,28.3589992 100.019501,28.7814993 100.019501,29.5354994 L100.019501,33 L102.054002,33 L102.054002,28.8139993 C102.054002,27.3449991 101.131002,26.4479989 99.6750014,26.4479989 C98.7975013,26.4479989 98.0825011,26.779499 97.6535011,27.5139991 C97.263501,26.831499 96.5485009,26.4479989 95.7100007,26.4479989 C94.8585006,26.4479989 94.2150005,26.753499 93.8120004,27.4229991 L93.8120004,26.623499 L91.8620001,26.623499 L91.8620001,33 L93.8965005,33 Z M106.473,33 L106.473,29.5679994 C106.473,28.7424993 106.941001,28.3589992 107.506501,28.3589992 C108.137001,28.3589992 108.514001,28.7814993 108.514001,29.5354994 L108.514001,33 L110.548501,33 L110.548501,29.5679994 C110.548501,28.7424993 111.023001,28.3589992 111.582001,28.3589992 C112.219001,28.3589992 112.596001,28.7814993 112.596001,29.5354994 L112.596001,33 L114.630502,33 L114.630502,28.8139993 C114.630502,27.3449991 113.707502,26.4479989 112.251501,26.4479989 C111.374001,26.4479989 110.659001,26.779499 110.230001,27.5139991 C109.840001,26.831499 109.125001,26.4479989 108.286501,26.4479989 C107.435001,26.4479989 106.791501,26.753499 106.3885,27.4229991 L106.3885,26.623499 L104.4385,26.623499 L104.4385,33 L106.473,33 Z M119.641001,33.169 C120.505501,33.169 121.090501,32.8115 121.474001,32.3109999 L121.474001,33 L123.443501,33 L123.443501,26.623499 L121.474001,26.623499 L121.474001,27.3124991 C121.090501,26.811999 120.505501,26.4479989 119.647501,26.4479989 C117.938,26.4479989 116.677,27.9299992 116.677,29.8019995 C116.677,31.6869998 117.938,33.169 119.641001,33.169 Z M120.128501,31.2709997 C119.316,31.2709997 118.77,30.6404996 118.77,29.8084995 C118.77,28.9764993 119.316,28.3459992 120.128501,28.3459992 C120.928001,28.3459992 121.493501,28.9634993 121.493501,29.8084995 C121.493501,30.6534996 120.928001,31.2709997 120.128501,31.2709997 Z M127.9015,33 L127.9015,29.5679994 C127.9015,28.7424993 128.369501,28.3589992 128.935001,28.3589992 C129.565501,28.3589992 129.942501,28.7814993 129.942501,29.5354994 L129.942501,33 L131.977001,33 L131.977001,28.8139993 C131.977001,27.3384991 130.989001,26.4479989 129.715001,26.4479989 C128.863501,26.4479989 128.220001,26.753499 127.817,27.4229991 L127.817,26.623499 L125.867,26.623499 L125.867,33 L127.9015,33 Z M136.987501,33.169 C137.852001,33.169 138.437001,32.8115 138.820501,32.3109999 L138.820501,33 L140.783501,33 L140.783501,23.6399985 L138.755501,23.6399985 L138.755501,27.2344991 C138.372001,26.772999 137.806501,26.4479989 136.994001,26.4479989 C135.2845,26.4479989 134.0235,27.9299992 134.0235,29.8019995 C134.0235,31.6869998 135.2845,33.169 136.987501,33.169 Z M137.475001,31.2709997 C136.6625,31.2709997 136.1165,30.6404996 136.1165,29.8084995 C136.1165,28.9764993 136.6625,28.3459992 137.475001,28.3459992 C138.274501,28.3459992 138.840001,28.9634993 138.840001,29.8084995 C138.840001,30.6534996 138.274501,31.2709997 137.475001,31.2709997 Z M151.649501,33.169 C153.391501,33.169 154.776001,32.3954999 155.608002,31.1539997 L153.827001,29.8929995 C153.307001,30.6664996 152.553001,31.0889997 151.630001,31.0889997 C150.284501,31.0889997 149.121,30.1399995 149.121,28.4499993 C149.121,26.889999 150.187001,25.8109988 151.623501,25.8109988 C152.566001,25.8109988 153.313501,26.2399989 153.788001,27.013499 L155.692502,25.9214988 C154.919001,24.5434986 153.385001,23.7309985 151.649501,23.7309985 C148.8415,23.7309985 146.859,25.6939988 146.859,28.4499993 C146.859,31.2059997 148.8415,33.169 151.649501,33.169 Z M160.618501,33.169 C161.795001,33.169 162.763501,32.7855 163.426501,32.1224999 L162.113501,30.9004997 C161.710501,31.2644997 161.197001,31.4594997 160.722501,31.4594997 C160.020501,31.4594997 159.5265,31.1344997 159.3575,30.4389996 L163.680001,30.4389996 C163.706001,30.3024996 163.719001,30.0164995 163.719001,29.8084995 C163.712501,27.8129991 162.419001,26.4479989 160.527501,26.4479989 C158.5905,26.4479989 157.258,27.8389992 157.258,29.8474995 C157.258,31.8364998 158.6165,33.169 160.618501,33.169 Z M161.684501,29.1519994 L159.364,29.1519994 C159.52,28.5214993 159.9035,28.1769992 160.534001,28.1769992 C161.125501,28.1769992 161.522001,28.5149993 161.684501,29.1519994 Z M167.8455,33 L167.8455,29.5679994 C167.8455,28.7424993 168.313501,28.3589992 168.879001,28.3589992 C169.509501,28.3589992 169.886501,28.7814993 169.886501,29.5354994 L169.886501,33 L171.921001,33 L171.921001,28.8139993 C171.921001,27.3384991 170.933001,26.4479989 169.659001,26.4479989 C168.807501,26.4479989 168.164001,26.753499 167.761,27.4229991 L167.761,26.623499 L165.811,26.623499 L165.811,33 L167.8455,33 Z M177.412501,33.169 C178.439501,33.169 179.076501,32.8765 179.674501,32.4604999 L178.972501,30.8744997 C178.654001,31.0629997 178.244501,31.2709997 177.867501,31.2709997 C177.354001,31.2709997 176.964001,31.0239997 176.964001,30.2894996 L176.964001,28.4239992 L179.141501,28.4239992 L179.141501,26.623499 L176.964001,26.623499 L176.964001,24.7644987 L174.9295,24.7644987 L174.9295,26.623499 L173.74,26.623499 L173.74,28.4239992 L174.9295,28.4239992 L174.9295,30.5494996 C174.9295,32.1484999 175.703,33.169 177.412501,33.169 Z M184.334001,33.169 C185.510501,33.169 186.479001,32.7855 187.142001,32.1224999 L185.829001,30.9004997 C185.426001,31.2644997 184.912501,31.4594997 184.438001,31.4594997 C183.736001,31.4594997 183.242,31.1344997 183.073,30.4389996 L187.395501,30.4389996 C187.421501,30.3024996 187.434501,30.0164995 187.434501,29.8084995 C187.428001,27.8129991 186.134501,26.4479989 184.243001,26.4479989 C182.306,26.4479989 180.9735,27.8389992 180.9735,29.8474995 C180.9735,31.8364998 182.332,33.169 184.334001,33.169 Z M185.400001,29.1519994 L183.0795,29.1519994 C183.2355,28.5214993 183.619,28.1769992 184.249501,28.1769992 C184.841001,28.1769992 185.237501,28.5149993 185.400001,29.1519994 Z M191.561,33 L191.561,29.5549994 C191.561,28.7619993 192.003001,28.4044992 192.724501,28.4044992 C193.088501,28.4044992 193.472001,28.4824993 193.745001,28.5734993 L193.933501,26.5454989 C193.777501,26.4999989 193.517501,26.4479989 193.218501,26.4479989 C192.438501,26.4479989 191.847,26.740499 191.4765,27.3579991 L191.4765,26.623499 L189.5265,26.623499 L189.5265,33 L191.561,33 Z"/>
    <rect width="1" height="40" x="55" fill-opacity=".25"/>
  </g>
</svg>
